<svg xmlns="http://www.w3.org/2000/svg" width="20.879" height="20.879" viewBox="0 0 20.879 20.879">
  <path id="iconmonstr-instagram-11" d="M10.439,1.882c2.787,0,3.118.01,4.219.061,2.829.129,4.151,1.471,4.279,4.279.05,1.1.06,1.431.06,4.218s-.01,3.118-.06,4.218c-.13,2.806-1.448,4.151-4.279,4.279-1.1.05-1.43.061-4.219.061s-3.118-.01-4.218-.061c-2.836-.13-4.151-1.478-4.279-4.28-.05-1.1-.061-1.43-.061-4.218s.011-3.117.061-4.218c.13-2.807,1.448-4.151,4.279-4.279,1.1-.05,1.431-.06,4.218-.06Zm0-1.882C7.6,0,7.249.012,6.136.063,2.345.237.237,2.34.064,6.135.012,7.249,0,7.6,0,10.439s.012,3.191.063,4.3c.174,3.791,2.278,5.9,6.072,6.072,1.114.05,1.469.063,4.3.063s3.191-.012,4.3-.063c3.788-.174,5.9-2.278,6.071-6.072.051-1.114.064-1.469.064-4.3s-.012-3.19-.063-4.3C20.646,2.348,18.54.237,14.745.064,13.63.012,13.275,0,10.439,0Zm0,5.079A5.361,5.361,0,1,0,15.8,10.439,5.361,5.361,0,0,0,10.439,5.079Zm0,8.84a3.48,3.48,0,1,1,3.48-3.48A3.479,3.479,0,0,1,10.439,13.919Zm5.573-10.3a1.253,1.253,0,1,0,1.252,1.253A1.253,1.253,0,0,0,16.012,3.615Z" transform="translate(0 0)" fill="#fff"/>
</svg>
