<svg xmlns="http://www.w3.org/2000/svg" width="68.106" height="15.204" viewBox="0 0 68.106 15.204">
  <g id="Group_3" data-name="Group 3" transform="translate(0 0)">
    <path id="Path_1" data-name="Path 1" d="M105.816,87.413a2.72,2.72,0,0,0-1.92-1.92c-1.694-.454-8.486-.454-8.486-.454s-6.792,0-8.486.454A2.72,2.72,0,0,0,85,87.413a30.344,30.344,0,0,0,0,10.456,2.72,2.72,0,0,0,1.92,1.92c1.694.454,8.486.454,8.486.454s6.792,0,8.486-.454a2.72,2.72,0,0,0,1.92-1.92,30.344,30.344,0,0,0,0-10.456ZM93.238,95.9V89.383l5.643,3.258Z" transform="translate(-84.55 -85.039)" fill="#fff"/>
    <g id="Group_2" data-name="Group 2" transform="translate(23.869 0.598)">
      <g id="Group_1" data-name="Group 1" transform="translate(0 0)">
        <path id="Path_2" data-name="Path 2" d="M255.427,119.1a2.365,2.365,0,0,1-.916-1.351,8.837,8.837,0,0,1-.272-2.439v-1.382a8.014,8.014,0,0,1,.311-2.47,2.478,2.478,0,0,1,.971-1.359,3.144,3.144,0,0,1,1.732-.427,2.954,2.954,0,0,1,1.693.435,2.493,2.493,0,0,1,.932,1.359,8.335,8.335,0,0,1,.3,2.462v1.382a8.479,8.479,0,0,1-.287,2.446,2.4,2.4,0,0,1-.932,1.351,3.821,3.821,0,0,1-3.526-.008Zm2.408-1.491a4.646,4.646,0,0,0,.179-1.522v-2.967a4.591,4.591,0,0,0-.179-1.5.639.639,0,0,0-.629-.474.63.63,0,0,0-.613.474,4.582,4.582,0,0,0-.179,1.5v2.967a4.833,4.833,0,0,0,.171,1.522.625.625,0,0,0,.621.466A.638.638,0,0,0,257.835,117.606Z" transform="translate(-247.769 -105.863)" fill="#fff"/>
        <path id="Path_3" data-name="Path 3" d="M435.774,115.362v.481a12.647,12.647,0,0,0,.054,1.375,1.3,1.3,0,0,0,.225.668.641.641,0,0,0,.528.21.665.665,0,0,0,.66-.373,3.242,3.242,0,0,0,.194-1.243l1.849.109a2.911,2.911,0,0,1,.016.342,2.526,2.526,0,0,1-.722,1.973,2.941,2.941,0,0,1-2.042.652,2.432,2.432,0,0,1-2.221-.994,5.821,5.821,0,0,1-.637-3.076v-1.662a5.757,5.757,0,0,1,.66-3.13,2.517,2.517,0,0,1,2.26-.986,2.988,2.988,0,0,1,1.693.4,2.169,2.169,0,0,1,.831,1.258,9.1,9.1,0,0,1,.241,2.361v1.631Zm.272-4.007a1.31,1.31,0,0,0-.217.66,12.847,12.847,0,0,0-.054,1.39v.684h1.569V113.4a11.589,11.589,0,0,0-.062-1.39,1.332,1.332,0,0,0-.225-.668.623.623,0,0,0-.5-.194A.611.611,0,0,0,436.046,111.355Z" transform="translate(-395.125 -105.895)" fill="#fff"/>
        <path id="Path_4" data-name="Path 4" d="M220.491,99.882l-2.439-8.807h2.128l.854,3.992q.326,1.476.481,2.516h.062q.109-.746.482-2.5l.885-4.008h2.128l-2.47,8.807v4.225h-2.112Z" transform="translate(-218.052 -90.594)" fill="#fff"/>
        <path id="Path_5" data-name="Path 5" d="M299.453,110.711v9.521h-1.678l-.186-1.165h-.046a2.193,2.193,0,0,1-2.05,1.32,1.61,1.61,0,0,1-1.4-.621,3.335,3.335,0,0,1-.45-1.941v-7.114h2.144v6.99a2.134,2.134,0,0,0,.14.909.484.484,0,0,0,.466.272.951.951,0,0,0,.536-.171,1.058,1.058,0,0,0,.381-.435v-7.564Z" transform="translate(-280.129 -106.719)" fill="#fff"/>
        <path id="Path_6" data-name="Path 6" d="M360.949,110.711v9.521h-1.678l-.186-1.165h-.046a2.193,2.193,0,0,1-2.05,1.32,1.61,1.61,0,0,1-1.4-.621,3.334,3.334,0,0,1-.45-1.941v-7.114h2.143v6.99a2.134,2.134,0,0,0,.14.909.484.484,0,0,0,.466.272.951.951,0,0,0,.536-.171,1.058,1.058,0,0,0,.381-.435v-7.564Z" transform="translate(-330.63 -106.719)" fill="#fff"/>
        <path id="Path_7" data-name="Path 7" d="M329.535,92.8h-2.128v11.308h-2.1V92.8h-2.128V91.077h6.353Z" transform="translate(-304.386 -90.595)" fill="#fff"/>
        <path id="Path_8" data-name="Path 8" d="M400.664,93.9a2.449,2.449,0,0,0-.629-1.3,1.69,1.69,0,0,0-1.2-.4,1.984,1.984,0,0,0-1.1.334,2.269,2.269,0,0,0-.792.878h-.016V88.383h-2.066V101.9h1.771l.217-.9h.047a1.818,1.818,0,0,0,.746.761,2.209,2.209,0,0,0,1.1.28,1.688,1.688,0,0,0,1.6-1,7.211,7.211,0,0,0,.513-3.13V96.4A12.514,12.514,0,0,0,400.664,93.9ZM398.7,97.781a12.044,12.044,0,0,1-.085,1.631,1.762,1.762,0,0,1-.287.839.664.664,0,0,1-.544.249.991.991,0,0,1-.489-.124.935.935,0,0,1-.365-.373V94.6a1.351,1.351,0,0,1,.373-.637.825.825,0,0,1,.575-.249.58.58,0,0,1,.5.256,1.971,1.971,0,0,1,.249.862,16.112,16.112,0,0,1,.07,1.724Z" transform="translate(-363.25 -88.383)" fill="#fff"/>
      </g>
    </g>
  </g>
</svg>
